<?xml version="1.0" encoding="utf-8"?>
<!-- Generator: Adobe Illustrator 19.2.1, SVG Export Plug-In . SVG Version: 6.00 Build 0)  -->
<svg version="1.1" id="Capa_1" xmlns="http://www.w3.org/2000/svg" xmlns:xlink="http://www.w3.org/1999/xlink" x="0px" y="0px"
	 viewBox="0 0 24 24" style="enable-background:new 0 0 24 24;" xml:space="preserve">
<style type="text/css">
	.st0{fill:none;}
</style>
<path class="st0" d="M0,0h24v24H0V0z"/>
<path d="M5.8,7L4.3,7l0,11.6c0,0.9,0.7,1.7,1.5,1.7l10.8,0l0-1.7l-10.8,0L5.8,7z M18.2,3.7l-9.3,0c-0.8,0-1.5,0.7-1.5,1.7l0,10
	c0,0.9,0.7,1.7,1.5,1.7l9.3,0c0.8,0,1.5-0.7,1.5-1.7l0-10C19.7,4.4,19,3.7,18.2,3.7z M17.4,11.2l-7.7,0l0-1.7l7.7,0L17.4,11.2z
	 M14.3,14.5l-4.6,0l0-1.7l4.6,0L14.3,14.5z M17.4,7.8l-7.7,0l0-1.7l7.7,0L17.4,7.8z"/>
</svg>
